<svg version="1.2" xmlns="http://www.w3.org/2000/svg" viewBox="0 0 1000 1000" width="1000" height="1000">
	<title>Proiect nou</title>
	<defs>
		<radialGradient id="g1" cx="0" cy="0" r="1" gradientUnits="userSpaceOnUse" gradientTransform="matrix(0,-653.583,653.583,0,813.74,1239.196)">
			<stop offset="0" stop-color="#fefefe"/>
			<stop offset=".5" stop-color="#d44a9a"/>
			<stop offset="1" stop-color="#654199"/>
		</radialGradient>
		<linearGradient id="g2" x2="1" gradientUnits="userSpaceOnUse" gradientTransform="matrix(0,-1321.412,1324.084,0,459.946,1220.211)">
			<stop offset=".1" stop-color="#7928ca"/>
			<stop offset=".4" stop-color="#aa19af"/>
			<stop offset=".6" stop-color="#cb109d"/>
			<stop offset=".9" stop-color="#fc0182"/>
			<stop offset=".92" stop-color="#ff0080"/>
		</linearGradient>
		<linearGradient id="g3" x2="1" gradientUnits="userSpaceOnUse" gradientTransform="matrix(0,-1299.717,1199.859,0,50.337,1272.723)">
			<stop offset=".1" stop-color="#7928ca"/>
			<stop offset=".4" stop-color="#ab19af"/>
			<stop offset=".6" stop-color="#cc0f9c"/>
			<stop offset=".9" stop-color="#fd0081"/>
			<stop offset=".91" stop-color="#ff0080"/>
		</linearGradient>
		<linearGradient id="g4" x2="1" gradientUnits="userSpaceOnUse" gradientTransform="matrix(0,-587.11,963.442,0,398.012,643.662)">
			<stop offset=".1" stop-color="#7928ca"/>
			<stop offset=".366" stop-color="#7928ca"/>
			<stop offset=".4" stop-color="#8425c4"/>
			<stop offset=".6" stop-color="#c112a2"/>
			<stop offset=".801" stop-color="#ff0080"/>
			<stop offset=".9" stop-color="#ff0080"/>
		</linearGradient>
		<linearGradient id="g5" x2="1" gradientUnits="userSpaceOnUse" gradientTransform="matrix(0,-1353.303,3061.683,0,341.334,1284.665)">
			<stop offset=".1" stop-color="#7928ca"/>
			<stop offset=".4" stop-color="#ab19ae"/>
			<stop offset=".6" stop-color="#cd0f9c"/>
			<stop offset=".9" stop-color="#ff0080"/>
		</linearGradient>
		<radialGradient id="g6" cx="0" cy="0" r="1" gradientUnits="userSpaceOnUse" gradientTransform="matrix(0,-511.776,511.776,0,571.702,460.647)">
			<stop offset=".1" stop-color="#7928ca"/>
			<stop offset=".11" stop-color="#7928ca"/>
			<stop offset=".4" stop-color="#aa19af"/>
			<stop offset=".6" stop-color="#cc0f9c"/>
			<stop offset=".9" stop-color="#ff0080"/>
		</radialGradient>
		<linearGradient id="g7" x2="1" gradientUnits="userSpaceOnUse" gradientTransform="matrix(0,-1002.671,954.285,0,.804,1053.31)">
			<stop offset=".1" stop-color="#7928ca"/>
			<stop offset=".11" stop-color="#7928ca"/>
			<stop offset=".4" stop-color="#aa19af"/>
			<stop offset=".6" stop-color="#cc0f9c"/>
			<stop offset=".9" stop-color="#ff0080"/>
		</linearGradient>
	</defs>
	<style>
		.s0 { fill: url(#g1) } 
		.s1 { opacity: .2;fill: #050302 } 
		.s2 { fill: url(#g2) } 
		.s3 { fill: url(#g3) } 
		.s4 { fill: url(#g4) } 
		.s5 { opacity: .2;fill: #050202 } 
		.s6 { fill: url(#g5) } 
		.s7 { fill: url(#g6) } 
		.s8 { fill: url(#g7) } 
	</style>
	<path id="&lt;Path&gt;" class="s0" d="m821.7 624.7c-66.8-17.9-152.3 24-235.1 77.6 30.2 30.1 55.1 65.3 69.7 101.6 91.7 227.8 149.1-77.2 325.6 95.3-33-125.2-88.7-216.8-160.2-274.5z"/>
	<path id="&lt;Path&gt;" class="s1" d="m586.6 702.3c10.4 10.4 20.2 21.4 29.1 32.8 68.3-63.7 140.4-115.2 206-110.4-66.8-17.9-152.3 24-235.1 77.6z"/>
	<path id="&lt;Path&gt;" class="s2" d="m459.2 290.6c36.4 57.4 71.9 134.9 105.5 211.4 91.2-14 174.9 2 245.6 47.8l-189.6-316c-53.2-68.3-108.2-27.3-161.5 56.8z"/>
	<path id="&lt;Path&gt;" class="s1" d="m459.2 290.6c5.9 9.2 11.7 19 17.6 29.2 33.7-90.9 89.7-137.2 143.9-86-53.2-68.3-108.2-27.3-161.5 56.8z"/>
	<path id="&lt;Path&gt;" class="s3" d="m297.8 229.8l-200.4 328.9c-15.2 112.6 80.4 118.7 194.1 84.7 94.8-206.2 216.2-554.8 329.2-409.6-113.4-191.1-213.9-183.1-322.9-4z"/>
	<path id="&lt;Path&gt;" class="s4" d="m295.9 232.8c53.4-68.5 109.2-26.7 163.1 58.1 53.3-84.3 108.5-125.5 161.7-57.1-112.2-189.1-211.9-186.3-324.8-1z"/>
	<path id="&lt;Path&gt;" class="s5" d="m97.4 558.7c-15.2 112.6 80.4 118.7 194.1 84.7 8.2-17.7 16.5-36.5 25-55.9-105.9 65.5-220 77.7-219.1-28.8z"/>
	<path id="&lt;Path&gt;" class="s6" d="m403.7 600.5c-153.2 69.9-326.3 107-306.3-41.8-224.4 368.5 73 422.8 316.5 263.2 117-76.8 291-228.5 407.8-197.2-110.2-88.9-257.9-97.3-418-24.2z"/>
	<path id="&lt;Path&gt;" class="s7" d="m403.7 600.5c-10.3 4.7-20.8 9.2-31.2 13.6 65.3-15.2 151.3 25.6 214.1 88.2 82.8-53.6 168.3-95.5 235.1-77.6-110.2-88.9-257.9-97.3-418-24.2z"/>
	<path id="&lt;Path&gt;" class="s8" d="m291.5 643.4c-113.7 34-209.3 27.9-194.1-84.7-204.8 336.3 25 410.9 251.7 300.1-156.4 42-100.6-121.7-57.6-215.4z"/>
</svg>